<svg width="36" height="33" viewBox="0 0 36 33" fill="none" xmlns="http://www.w3.org/2000/svg">
<rect x="0.5" y="0.5" width="35" height="32" rx="5.5" stroke="#FAA907" stroke-opacity="0.78"/>
<path d="M19.9167 9.18784L24.5833 13.6878M6.5 26.6253H11.1667L26.3333 12.0003C26.9522 11.4036 27.2998 10.5943 27.2998 9.75034C27.2998 8.90643 26.9522 8.09708 26.3333 7.50034C25.7145 6.9036 24.8752 6.56836 24 6.56836C23.1248 6.56836 22.2855 6.9036 21.6667 7.50034L6.5 22.1253V26.6253Z" stroke="#FAA907" stroke-opacity="0.78" stroke-width="2" stroke-linecap="round" stroke-linejoin="round"/>
<path d="M17 12L11.1667 6.375L6.5 10.875L12.3333 16.5M11.1667 12L9.41667 13.6875M21.6667 16.5L27.5 22.125L22.8333 26.625L17 21M21.6667 22.125L19.9167 23.8125" stroke="#FAA907" stroke-opacity="0.78" stroke-width="2" stroke-linecap="round" stroke-linejoin="round"/>
</svg>
