<svg width="36" height="33" viewBox="0 0 36 33" fill="none" xmlns="http://www.w3.org/2000/svg">
<rect x="0.5" y="0.5" width="35" height="32" rx="5.5" stroke="#414142" stroke-opacity="0.78"/>
<path d="M28.375 23.9511V28.3122C28.375 28.536 28.2828 28.7506 28.1187 28.9088C27.9546 29.067 27.7321 29.1559 27.5 29.1559C27.2679 29.1559 27.0454 29.067 26.8813 28.9088C26.7172 28.7506 26.625 28.536 26.625 28.3122V23.9511C26.6209 22.8681 26.3858 21.7975 25.9342 20.8059C25.4826 19.8143 24.8242 18.9229 24 18.1872V24.3413C23.9998 24.5229 23.9389 24.6995 23.8263 24.8451C23.7137 24.9906 23.5555 25.0973 23.375 25.1491C23.1946 25.201 23.0016 25.1954 22.8247 25.1331C22.6478 25.0708 22.4965 24.9551 22.3933 24.8032L21.2252 23.083C21.2164 23.0704 21.2077 23.0567 21.2 23.043C21.0284 22.7508 20.7435 22.5363 20.4079 22.4467C20.0724 22.3571 19.7136 22.3997 19.4106 22.5652C19.1076 22.7306 18.8852 23.0054 18.7923 23.329C18.6994 23.6526 18.7436 23.9985 18.9152 24.2907L21.3356 27.8545C21.4627 28.0417 21.5074 28.27 21.4599 28.4891C21.4124 28.7081 21.2766 28.9 21.0824 29.0225C20.8882 29.145 20.6515 29.1881 20.4243 29.1424C20.1971 29.0966 19.9981 28.9656 19.8711 28.7784L17.4364 25.1924L17.4102 25.1523C17.3686 25.0827 17.3303 25.0121 17.2953 24.9414H9.125C8.89294 24.9414 8.67038 24.8525 8.50628 24.6943C8.34219 24.536 8.25 24.3214 8.25 24.0977V13.1247C8.25 12.6771 8.43437 12.2479 8.76256 11.9314C9.09075 11.615 9.53587 11.4372 10 11.4372H15.25V16.4997C15.25 16.7235 15.3422 16.9381 15.5063 17.0963C15.6704 17.2545 15.8929 17.3434 16.125 17.3434C16.3571 17.3434 16.5796 17.2545 16.7437 17.0963C16.9078 16.9381 17 16.7235 17 16.4997V11.4372H22.25C22.7141 11.4372 23.1592 11.615 23.4874 11.9314C23.8156 12.2479 24 12.6771 24 13.1247V16.0377C25.343 16.9129 26.4437 18.0914 27.2063 19.4707C27.9688 20.8499 28.37 22.388 28.375 23.9511ZM17 6.72379L19.0059 8.65914C19.1701 8.81746 19.3928 8.90641 19.625 8.90641C19.8572 8.90641 20.0799 8.81746 20.2441 8.65914C20.4082 8.50082 20.5005 8.28609 20.5005 8.06219C20.5005 7.83829 20.4082 7.62356 20.2441 7.46523L16.7441 4.09023C16.6628 4.01179 16.5663 3.94955 16.4601 3.90709C16.3538 3.86463 16.24 3.84277 16.125 3.84277C16.01 3.84277 15.8962 3.86463 15.7899 3.90709C15.6837 3.94955 15.5872 4.01179 15.5059 4.09023L12.0059 7.46523C11.8418 7.62356 11.7495 7.83829 11.7495 8.06219C11.7495 8.28609 11.8418 8.50082 12.0059 8.65914C12.1701 8.81746 12.3928 8.90641 12.625 8.90641C12.8572 8.90641 13.0799 8.81746 13.2441 8.65914L15.25 6.72379V11.4372H17V6.72379Z" fill="#414142" fill-opacity="0.78"/>
</svg>
