<svg width="36" height="33" viewBox="0 0 36 33" fill="none" xmlns="http://www.w3.org/2000/svg">
<rect x="0.5" y="0.5" width="35" height="32" rx="5.5" stroke="#414142" stroke-opacity="0.78"/>
<g clip-path="url(#clip0_976_4286)">
<path d="M18.9875 25.8747L6.75 15.6768V17.7601C6.75 18.3122 7.0125 18.8434 7.4875 19.2288L17.225 27.3434C18.2 28.1559 19.7875 28.1559 20.7625 27.3434L28.525 20.8747C29.5 20.0622 29.5 18.7393 28.525 17.9268L18.9875 25.8747Z" fill="#414142" fill-opacity="0.78"/>
<path d="M17.225 22.1354C18.2 22.9479 19.7875 22.9479 20.7625 22.1354L28.525 15.6667C29.5 14.8542 29.5 13.5313 28.525 12.7188L18.7875 4.60417C18.3127 4.21802 17.676 4.0013 17.0125 4H9.25C7.875 4 6.75 4.9375 6.75 6.08333V12.5521C6.75 13.1042 7.0125 13.6354 7.4875 14.0208L17.225 22.1354ZM12.0625 7.125C12.4769 7.125 12.8743 7.26218 13.1674 7.50637C13.4604 7.75056 13.625 8.08175 13.625 8.42708C13.625 8.77242 13.4604 9.10361 13.1674 9.3478C12.8743 9.59198 12.4769 9.72917 12.0625 9.72917C11.6481 9.72917 11.2507 9.59198 10.9576 9.3478C10.6646 9.10361 10.5 8.77242 10.5 8.42708C10.5 8.08175 10.6646 7.75056 10.9576 7.50637C11.2507 7.26218 11.6481 7.125 12.0625 7.125Z" fill="#414142" fill-opacity="0.78"/>
</g>
<defs>
<clipPath id="clip0_976_4286">
<rect width="30" height="25" fill="white" transform="translate(3 4)"/>
</clipPath>
</defs>
</svg>
