<svg width="36" height="33" viewBox="0 0 36 33" fill="none" xmlns="http://www.w3.org/2000/svg">
<rect x="0.5" y="0.5" width="35" height="32" rx="5.5" stroke="#414142" stroke-opacity="0.78"/>
<path d="M28.3125 6.375V23.25C28.3125 23.4738 28.2137 23.6884 28.0379 23.8466C27.8621 24.0049 27.6236 24.0938 27.375 24.0938H11.4375C10.9402 24.0938 10.4633 24.2715 10.1117 24.588C9.76004 24.9045 9.5625 25.3337 9.5625 25.7812H25.5C25.7486 25.7812 25.9871 25.8701 26.1629 26.0284C26.3387 26.1866 26.4375 26.4012 26.4375 26.625C26.4375 26.8488 26.3387 27.0634 26.1629 27.2216C25.9871 27.3799 25.7486 27.4688 25.5 27.4688H8.625C8.37636 27.4688 8.1379 27.3799 7.96209 27.2216C7.78627 27.0634 7.6875 26.8488 7.6875 26.625V8.90625C7.6875 8.01114 8.08259 7.1527 8.78585 6.51976C9.48911 5.88683 10.4429 5.53125 11.4375 5.53125H27.375C27.6236 5.53125 27.8621 5.62014 28.0379 5.77838C28.2137 5.93661 28.3125 6.15122 28.3125 6.375Z" fill="#414142" fill-opacity="0.78"/>
<path fill-rule="evenodd" clip-rule="evenodd" d="M13.625 9.8623C13.1277 9.8623 12.6508 10.0401 12.2992 10.3566C11.9475 10.673 11.75 11.1023 11.75 11.5498V16.0498C11.75 16.4974 11.9475 16.9266 12.2992 17.243C12.6508 17.5595 13.1277 17.7373 13.625 17.7373H19.875C20.3723 17.7373 20.8492 17.5595 21.2008 17.243C21.5525 16.9266 21.75 16.4974 21.75 16.0498V15.1577L23.1831 16.4475C23.2705 16.5261 23.3819 16.5797 23.5031 16.6014C23.6243 16.6231 23.75 16.6119 23.8642 16.5694C23.9783 16.5268 24.0759 16.4547 24.1446 16.3622C24.2133 16.2698 24.25 16.161 24.25 16.0498V11.5498C24.25 11.4386 24.2133 11.3298 24.1446 11.2374C24.0759 11.1449 23.9783 11.0728 23.8642 11.0302C23.75 10.9877 23.6243 10.9765 23.5031 10.9982C23.3819 11.0199 23.2705 11.0735 23.1831 11.1521L21.75 12.4419V11.5498C21.75 11.1023 21.5525 10.673 21.2008 10.3566C20.8492 10.0401 20.3723 9.8623 19.875 9.8623H13.625Z" fill="white"/>
</svg>
