<svg width="36" height="33" viewBox="0 0 36 33" fill="none" xmlns="http://www.w3.org/2000/svg">
<rect x="0.5" y="0.5" width="35" height="32" rx="5.5" stroke="#FAA907" stroke-opacity="0.78"/>
<path d="M17.75 26.125C16.0625 25.1688 13 24.4375 10.875 24.4375C8.8125 24.4375 6.6875 24.775 4.9375 25.6187C4.8125 25.675 4.75 25.675 4.625 25.675C4.3125 25.675 4 25.3938 4 25.1125V8.6875C4.75 8.18125 5.5625 7.84375 6.5 7.5625C7.8875 7.16875 9.4125 7 10.875 7C13.3125 7 15.9375 7.45 17.75 8.6875C19.5625 7.45 22.1875 7 24.625 7C26.0875 7 27.6125 7.16875 29 7.5625C29.9375 7.84375 30.75 8.18125 31.5 8.6875V25.1125C31.5 25.3938 31.1875 25.675 30.875 25.675C30.75 25.675 30.6875 25.675 30.5625 25.6187C28.8125 24.775 26.6875 24.4375 24.625 24.4375C22.5 24.4375 19.4375 25.1688 17.75 26.125ZM16.5 10.375C14.8 9.7 12.55 9.25 10.875 9.25C9.375 9.25 7.875 9.41875 6.5 9.8125V22.75C7.875 22.3562 9.375 22.1875 10.875 22.1875C12.55 22.1875 14.8 22.6375 16.5 23.3125V10.375ZM19 23.3125C20.7 22.6375 22.95 22.1875 24.625 22.1875C26.125 22.1875 27.625 22.3562 29 22.75V9.8125C27.625 9.41875 26.125 9.25 24.625 9.25C22.95 9.25 20.7 9.7 19 10.375V23.3125ZM20.25 20.3313C21.45 19.9375 22.9 19.7463 24.625 19.7463C25.925 19.7463 26.975 19.8362 27.75 20.0162V18.3287C25.2625 17.9075 22.7029 17.9804 20.25 18.5425V20.3313ZM20.25 17.3387C21.45 16.945 22.9 16.7425 24.625 16.7425C25.925 16.7425 26.975 16.8325 27.75 17.0125V15.325C26.6625 15.145 25.6125 15.0662 24.625 15.0662C23.025 15.0662 21.5625 15.235 20.25 15.5725V17.3387ZM20.25 14.3125C21.45 13.9412 22.9 13.75 24.625 13.75C25.7625 13.75 26.825 13.8512 27.75 14.065V12.3212C26.6625 12.1525 25.6125 12.0625 24.625 12.0625C22.975 12.0625 21.5 12.2312 20.25 12.58V14.3125Z" fill="#FAA907" fill-opacity="0.78"/>
</svg>
