<svg width="36" height="33" viewBox="0 0 36 33" fill="none" xmlns="http://www.w3.org/2000/svg">
  <rect x="0.5" y="0.5" width="35" height="32" rx="5.5" stroke="#FAA907" stroke-opacity="0.78" />
  <g transform="translate(5, 8)" transform-origin="center" text-anchor="middle">
    <path fill-rule="evenodd" clip-rule="evenodd" d="M9.54788 11.5579C9.98662 11.5579 10.3421 11.8905 10.3421 12.2993C10.3417 12.3971 10.3208 12.4938 10.2806 12.584C10.2405 12.6742 10.1819 12.7561 10.1081 12.8249C10.0343 12.8938 9.94691 12.9482 9.85079 12.9853C9.75466 13.0223 9.65173 13.0412 9.54788 13.0407H6.336C6.23205 13.0413 6.12899 13.0226 6.03274 12.9856C5.93649 12.9486 5.84892 12.8941 5.77505 12.8253C5.70118 12.7564 5.64245 12.6745 5.60222 12.5843C5.562 12.494 5.54107 12.3972 5.54063 12.2993C5.54063 11.8905 5.89725 11.5579 6.336 11.5579H9.54788ZM10.3241 8.8114C10.7629 8.8114 11.1184 9.14505 11.1184 9.55284C11.1179 9.65071 11.097 9.74754 11.0568 9.83779C11.0166 9.92804 10.9578 10.0099 10.884 10.0788C10.8101 10.1477 10.7225 10.2021 10.6263 10.2391C10.53 10.2761 10.427 10.2948 10.323 10.2943H6.354C6.25014 10.2947 6.14721 10.2758 6.05109 10.2388C5.95496 10.2018 5.86753 10.1473 5.79378 10.0784C5.72002 10.0096 5.6614 9.92773 5.62124 9.83755C5.58109 9.74736 5.56019 9.65062 5.55975 9.55284C5.55975 9.14399 5.91525 8.8114 6.354 8.8114H10.3241ZM14.6711 5.1466C14.6744 4.55443 14.9272 3.98768 15.3739 3.57083C15.8207 3.15398 16.4249 2.92111 17.0539 2.92336C17.683 2.92111 18.2874 3.15413 18.7342 3.5712C19.181 3.98828 19.4336 4.5553 19.4366 5.14766C19.4331 5.74014 19.1803 6.30717 18.7338 6.72463C18.2872 7.14209 17.6832 7.37599 17.0539 7.37514C16.4245 7.37571 15.8204 7.14157 15.3739 6.72394C14.9274 6.30631 14.6747 5.73918 14.6711 5.1466ZM21.7125 12.0938C21.825 12.7495 21.2872 13.3437 20.5819 13.3416H13.5259C13.3602 13.3419 13.1964 13.3082 13.0458 13.243C12.8953 13.1778 12.7616 13.0826 12.6541 12.9639C12.5465 12.8452 12.4677 12.7059 12.423 12.5557C12.3783 12.4054 12.3688 12.2478 12.3952 12.0938C12.7496 10.0369 13.9601 8.37713 15.5407 7.71938C16.0036 7.96144 16.5244 8.08846 17.0539 8.08846C17.5834 8.08846 18.1041 7.96144 18.567 7.71938C20.1476 8.37713 21.3592 10.039 21.7125 12.0938ZM11.9115 7.54991C2.484 7.54991 11.7461 7.54779 6.35287 7.54779C6.24892 7.54835 6.14587 7.5296 6.04962 7.49263C5.95336 7.45566 5.8658 7.40118 5.79192 7.33232C5.71805 7.26346 5.65932 7.18156 5.6191 7.09131C5.57887 7.00106 5.55794 6.90423 5.5575 6.80636C5.5575 6.39751 5.91412 6.06492 6.35287 6.06492L11.9115 6.06598C12.3502 6.06598 12.7069 6.39857 12.7057 6.80847C12.7058 6.90638 12.6852 7.00331 12.6452 7.09368C12.6052 7.18406 12.5466 7.26607 12.4727 7.33501C12.3989 7.40394 12.3113 7.45842 12.2149 7.4953C12.1186 7.53219 12.0155 7.55075 11.9115 7.54991ZM6.354 4.80237C6.24992 4.80335 6.14667 4.78489 6.05022 4.74807C5.95376 4.71125 5.86602 4.65679 5.79206 4.58785C5.71809 4.5189 5.65938 4.43683 5.61931 4.34639C5.57925 4.25595 5.55862 4.15893 5.55863 4.06094C5.55863 3.65209 5.91525 3.3195 6.354 3.3195H11.9115C12.3491 3.3195 12.7046 3.65103 12.7046 4.06094C12.7034 4.25823 12.6191 4.44702 12.4702 4.58584C12.3213 4.72466 12.1199 4.80215 11.9104 4.80131L6.354 4.80237ZM15.1391 15.5182C15.3349 15.5182 15.5227 15.4454 15.6618 15.3157C15.8008 15.186 15.8798 15.0098 15.8816 14.8255H23.8241V1.47969H3.177V14.8244H11.1184C11.1184 15.2068 11.4502 15.5171 11.8609 15.5171L15.1391 15.5182ZM27 14.8255V15.8391C27 16.4799 26.442 17 25.7557 17H1.24425C0.558 17 0 16.481 0 15.8391V14.8255H1.58963V1.4638C1.58963 0.65564 2.2905 0 3.15787 0H23.8432C24.7095 0 25.4115 0.65564 25.4115 1.4638V14.8255H27Z" fill="#FAA907" fill-opacity="0.78"/>
  </g>
</svg>
