<svg width="36" height="33" viewBox="0 0 36 33" fill="none" xmlns="http://www.w3.org/2000/svg">
<rect x="0.5" y="0.5" width="35" height="32" rx="5.5" stroke="#414142" stroke-opacity="0.78"/>
<path fill-rule="evenodd" clip-rule="evenodd" d="M8 6.375C7.33696 6.375 6.70107 6.61205 6.23223 7.03401C5.76339 7.45597 5.5 8.02826 5.5 8.625V24.375C5.5 24.9717 5.76339 25.544 6.23223 25.966C6.70107 26.3879 7.33696 26.625 8 26.625H28C28.663 26.625 29.2989 26.3879 29.7678 25.966C30.2366 25.544 30.5 24.9717 30.5 24.375V8.625C30.5 8.02826 30.2366 7.45597 29.7678 7.03401C29.2989 6.61205 28.663 6.375 28 6.375H8ZM13.7812 12.7088C13.809 12.4937 13.8922 12.2874 14.0242 12.1064C14.1563 11.9254 14.3335 11.7747 14.5418 11.6663C14.75 11.5579 14.9835 11.4947 15.2237 11.482C15.4639 11.4692 15.704 11.5072 15.925 11.5928C16.555 11.8358 17.885 12.3825 19.57 13.2578C20.7542 13.8669 21.8978 14.5378 22.995 15.267C23.1879 15.3962 23.3446 15.5642 23.4525 15.7576C23.5605 15.9509 23.6167 16.1643 23.6167 16.3807C23.6167 16.5972 23.5605 16.8106 23.4525 17.0039C23.3446 17.1973 23.1879 17.3653 22.995 17.4945C21.8977 18.223 20.7541 18.8931 19.57 19.5015C18.3921 20.1207 17.1751 20.6774 15.925 21.1687C15.704 21.2546 15.4638 21.2927 15.2236 21.2801C14.9833 21.2674 14.7497 21.2043 14.5413 21.0959C14.333 20.9874 14.1558 20.8366 14.0238 20.6555C13.8918 20.4743 13.8087 20.2679 13.7812 20.0527C13.6313 18.8334 13.5578 17.6075 13.5613 16.3807C13.5613 14.6359 13.7013 13.3219 13.7812 12.7088Z" fill="#414142" fill-opacity="0.78"/>
</svg>
